<svg aria-hidden="true" style="position:absolute;width:0;height:0;overflow:hidden" xmlns="http://www.w3.org/2000/svg">
  <defs>
    <symbol id="icon-login" viewBox="0 0 32 32">
      <path stroke-linejoin="round" stroke-linecap="round" stroke-width="3.2" d="M20 4h1.6c2.24 0 3.36 0 4.216.436a3.996 3.996 0 0 1 1.748 1.748C28 7.04 28 8.16 28 10.4v11.2c0 2.24 0 3.36-.436 4.216a4.001 4.001 0 0 1-1.748 1.748C24.96 28 23.84 28 21.6 28H20M13.333 9.333 20 16m0 0-6.667 6.667M20 16H4"/>
    </symbol>
    <symbol id="icon-star" viewBox="0 0 32 32">
      <path stroke-width="2.4" d="M12.4 9.394 16 2.572l3.6 6.822a2.2 2.2 0 0 0 1.571 1.141l7.601 1.315-5.376 5.532a2.2 2.2 0 0 0-.6 1.846l1.098 7.635-6.922-3.404a2.199 2.199 0 0 0-1.941 0l-6.922 3.404 1.098-7.635a2.2 2.2 0 0 0-.6-1.846L3.231 11.85l7.601-1.315a2.202 2.202 0 0 0 1.571-1.141zm16.635 2.185zM7.767 27.031z"/>
    </symbol>
    <symbol id="icon-book" viewBox="0 0 32 32">
      <path stroke-linejoin="round" stroke-linecap="round" stroke-width="3" d="M29.333 8.267c0-1.493 0-2.24-.291-2.811a2.666 2.666 0 0 0-1.165-1.165C27.306 4 26.56 4 25.066 4h-.533c-2.987 0-4.48 0-5.621.581a5.331 5.331 0 0 0-2.331 2.331C16 8.053 16 9.546 16 12.533V28l.133-.2c.926-1.389 1.389-2.084 2.001-2.587a5.345 5.345 0 0 1 1.837-.983c.758-.23 1.593-.23 3.262-.23h1.833c1.494 0 2.24 0 2.811-.291.502-.256.91-.664 1.165-1.165.291-.57.291-1.317.291-2.811V8.266zM2.667 8.267c0-1.493 0-2.24.291-2.811.256-.502.664-.91 1.165-1.165C4.693 4 5.44 4 6.934 4h.533c2.987 0 4.48 0 5.621.581a5.331 5.331 0 0 1 2.331 2.331C16 8.053 16 9.546 16 12.533V28l-.133-.2c-.926-1.389-1.389-2.084-2.001-2.587a5.345 5.345 0 0 0-1.837-.983C11.271 24 10.436 24 8.767 24H6.934c-1.493 0-2.24 0-2.811-.291a2.666 2.666 0 0 1-1.165-1.165c-.291-.57-.291-1.317-.291-2.811V8.266z"/>
    </symbol>
    <symbol id="icon-heart" viewBox="0 0 38 32">
      <path stroke-linejoin="round" stroke-linecap="round" stroke-width="2.909" d="M32.839 4.355a8.672 8.672 0 0 0-6.13-2.54 8.664 8.664 0 0 0-6.13 2.54l-1.67 1.67-1.67-1.67a8.669 8.669 0 0 0-12.26 12.26l13.93 13.93 13.93-13.93a8.672 8.672 0 0 0 2.54-6.13 8.664 8.664 0 0 0-2.54-6.13z"/>
    </symbol>
    <symbol id="icon-eye" viewBox="0 0 32 32">
      <path stroke-linejoin="round" stroke-linecap="round" stroke-width="3.2" d="M23.92 23.92A13.43 13.43 0 0 1 16 26.667C6.667 26.667 1.333 16 1.333 16A24.605 24.605 0 0 1 8.08 8.08m5.12-2.427a12.161 12.161 0 0 1 2.8-.32C25.333 5.333 30.667 16 30.667 16a24.646 24.646 0 0 1-2.88 4.253m-8.96-1.426a4.003 4.003 0 0 1-5.755.102 3.994 3.994 0 0 1-.824-4.456 4.01 4.01 0 0 1 .927-1.298M1.333 1.333l29.333 29.333"/>
    </symbol>
    <symbol id="icon-close" viewBox="0 0 32 32">
      <path stroke-linejoin="round" stroke-linecap="round" stroke-width="2.5" d="M24 8 8 24M8 8l16 16"/>
    </symbol>
    <symbol id="icon-status" viewBox="0 0 32 32">
      <path fill="#fff" style="fill:var(--color1, #fff)" d="M32 16c0 8.837-7.163 16-16 16S0 24.837 0 16 7.163 0 16 0s16 7.163 16 16z"/>
      <path fill="#38cd3e" style="fill:var(--color2, #38cd3e)" d="M26.667 16c0 5.891-4.776 10.667-10.667 10.667S5.333 21.891 5.333 16 10.109 5.333 16 5.333 26.667 10.109 26.667 16z"/>
    </symbol>
    <symbol id="icon-ukraine" viewBox="0 0 32 32">
      <path fill="#ffda44" style="fill:var(--color3, #ffda44)" d="M16 32c8.837 0 16-7.163 16-16S24.837 0 16 0 0 7.163 0 16s7.163 16 16 16z"/>
      <path fill="#338af3" style="fill:var(--color4, #338af3)" d="M0 16C0 7.164 7.163 0 16 0s16 7.163 16 16z"/>
    </symbol>
  </defs>
</svg>